<?xml version="1.0" encoding="iso-8859-1"?>
<!-- Generator: Adobe Illustrator 21.0.0, SVG Export Plug-In . SVG Version: 6.00 Build 0)  -->
<svg xmlns="http://www.w3.org/2000/svg" xmlns:xlink="http://www.w3.org/1999/xlink" version="1.1" id="Capa_1" x="0px" y="0px" viewBox="0 0 512 512" style="enable-background:new 0 0 512 512;" xml:space="preserve" width="512px" height="512px">
<g>
	<path d="M140.032,280.067h231.934c4.143,0,7.5-3.358,7.5-7.5V106.902c0-4.142-3.357-7.5-7.5-7.5H140.032   c-4.142,0-7.5,3.358-7.5,7.5v165.665C132.532,276.709,135.89,280.067,140.032,280.067z M147.532,114.402h216.934v150.665H147.532   V114.402z" fill="#2e3131"/>
	<path d="M98.615,147.534c13.271,0,24.067-10.796,24.067-24.067c0-13.271-10.796-24.067-24.067-24.067   c-13.271,0-24.067,10.796-24.067,24.067C74.549,136.738,85.345,147.534,98.615,147.534z M98.615,114.4c5,0,9.067,4.067,9.067,9.067   c0,5-4.067,9.067-9.067,9.067c-5,0-9.067-4.067-9.067-9.067C89.549,118.467,93.616,114.4,98.615,114.4z" fill="#2e3131"/>
	<path d="M98.615,213.801c13.271,0,24.067-10.796,24.067-24.067c0-13.271-10.796-24.067-24.067-24.067   c-13.271,0-24.067,10.796-24.067,24.067C74.549,203.004,85.345,213.801,98.615,213.801z M98.615,180.667   c5,0,9.067,4.067,9.067,9.067c0,5-4.067,9.067-9.067,9.067c-5,0-9.067-4.067-9.067-9.067   C89.549,184.734,93.616,180.667,98.615,180.667z" fill="#2e3131"/>
	<path d="M98.615,280.067c13.271,0,24.067-10.796,24.067-24.067c0-13.27-10.796-24.067-24.067-24.067   c-13.271,0-24.067,10.796-24.067,24.067C74.549,269.271,85.345,280.067,98.615,280.067z M98.615,246.933   c5,0,9.067,4.067,9.067,9.067c0,5-4.067,9.067-9.067,9.067c-5,0-9.067-4.067-9.067-9.067C89.549,251,93.616,246.933,98.615,246.933   z" fill="#2e3131"/>
	<path d="M413.383,147.534c13.27,0,24.067-10.796,24.067-24.067c0-13.271-10.797-24.067-24.067-24.067   c-13.271,0-24.066,10.796-24.066,24.067C389.316,136.738,400.112,147.534,413.383,147.534z M413.383,114.4   c5,0,9.067,4.067,9.067,9.067c0,5-4.067,9.067-9.067,9.067c-4.999,0-9.066-4.067-9.066-9.067   C404.316,118.467,408.384,114.4,413.383,114.4z" fill="#2e3131"/>
	<path d="M413.383,213.801c13.27,0,24.067-10.796,24.067-24.067c0-13.271-10.797-24.067-24.067-24.067   c-13.271,0-24.066,10.796-24.066,24.067C389.316,203.004,400.112,213.801,413.383,213.801z M413.383,180.667   c5,0,9.067,4.067,9.067,9.067c0,5-4.067,9.067-9.067,9.067c-4.999,0-9.066-4.067-9.066-9.067   C404.316,184.734,408.384,180.667,413.383,180.667z" fill="#2e3131"/>
	<path d="M413.383,280.067c13.27,0,24.067-10.796,24.067-24.067c0-13.27-10.797-24.067-24.067-24.067   c-13.271,0-24.066,10.796-24.066,24.067C389.316,269.271,400.112,280.067,413.383,280.067z M413.383,246.933   c5,0,9.067,4.067,9.067,9.067c0,5-4.067,9.067-9.067,9.067c-4.999,0-9.066-4.067-9.066-9.067   C404.316,251,408.384,246.933,413.383,246.933z" fill="#2e3131"/>
	<path d="M189.734,81.267h132.533c4.143,0,7.5-3.358,7.5-7.5V40.633c0-4.142-3.357-7.5-7.5-7.5H189.734c-4.142,0-7.5,3.358-7.5,7.5   v33.134C182.234,77.909,185.592,81.267,189.734,81.267z M197.234,48.133h117.533v18.134H197.234V48.133z" fill="#2e3131"/>
	<path d="M340.688,149.484c-3.065-1.021-6.436,0.033-8.372,2.615l-18.851,25.135l-18.85-25.134   c-1.936-2.582-5.306-3.635-8.372-2.615c-3.063,1.021-5.128,3.887-5.128,7.115V206.3c0,4.142,3.357,7.5,7.5,7.5s7.5-3.358,7.5-7.5   v-27.199l11.35,15.133c1.416,1.889,3.64,3,6,3c2.36,0,4.584-1.111,6-3l11.351-15.134v27.2c0,4.142,3.357,7.5,7.5,7.5   s7.5-3.358,7.5-7.5v-49.7C345.816,153.372,343.751,150.505,340.688,149.484z" fill="#2e3131"/>
	<path d="M266.872,149.101h-16.548c-0.006,0-0.013-0.001-0.019-0.001c-0.007,0-0.013,0.001-0.019,0.001h-16.547   c-4.142,0-7.5,3.358-7.5,7.5c0,4.142,3.358,7.5,7.5,7.5h9.066V206.3c0,4.142,3.358,7.5,7.5,7.5c4.142,0,7.5-3.358,7.5-7.5v-42.199   h9.067c4.143,0,7.5-3.358,7.5-7.5C274.372,152.458,271.014,149.101,266.872,149.101z" fill="#2e3131"/>
	<path d="M205.241,153.246c-1.27-2.541-3.867-4.146-6.708-4.146c-2.841,0-5.438,1.605-6.708,4.146l-24.85,49.7   c-1.853,3.705-0.351,8.21,3.354,10.062c1.077,0.539,2.221,0.793,3.348,0.793c2.751,0,5.4-1.52,6.714-4.147l6.21-12.419h23.864   l6.21,12.419c1.853,3.705,6.356,5.208,10.062,3.354c3.705-1.852,5.207-6.357,3.354-10.062L205.241,153.246z M194.101,182.234   l4.432-8.864l4.432,8.864H194.101z" fill="#2e3131"/>
	<path d="M487.931,497h-9.067v-25.633c0-4.142-3.357-7.5-7.5-7.5H462.3V7.5c0-4.142-3.357-7.5-7.5-7.5H57.2   c-4.142,0-7.5,3.358-7.5,7.5v298.171c0,0.01-0.001,0.019-0.001,0.029s0.001,0.019,0.001,0.029v158.137h-9.066   c-4.142,0-7.5,3.358-7.5,7.5V497h-9.066c-4.142,0-7.5,3.358-7.5,7.5s3.358,7.5,7.5,7.5h59.547c4.142,0,7.5-3.358,7.5-7.5   s-3.358-7.5-7.5-7.5H48.134v-18.133h9.056c0.003,0,0.006,0,0.01,0h397.6c0.003,0,0.006,0,0.01,0h9.055V497H113.615   c-4.142,0-7.5,3.358-7.5,7.5s3.358,7.5,7.5,7.5h374.316c4.143,0,7.5-3.358,7.5-7.5S492.074,497,487.931,497z M447.3,15v283.2   h-58.767H123.467H64.7V15H447.3z M213.8,346.332h84.399v84.401H213.8V346.332z M313.199,346.332h25.634c4.143,0,7.5-3.358,7.5-7.5   c0-4.142-3.357-7.5-7.5-7.5H173.165c-4.142,0-7.5,3.358-7.5,7.5c0,4.142,3.358,7.5,7.5,7.5H198.8v18.134h-67.833V313.2h250.066   v51.267h-67.834V346.332z M64.7,313.2h51.267v58.767c0,4.142,3.358,7.5,7.5,7.5H198.8v58.767c0,4.142,3.358,7.5,7.5,7.5h99.399   c4.143,0,7.5-3.358,7.5-7.5v-58.767h75.334c4.143,0,7.5-3.358,7.5-7.5V313.2H447.3v150.667H64.7V313.2z" fill="#2e3131"/>
</g>















</svg>
