<?xml version="1.0" encoding="iso-8859-1"?>
<!-- Generator: Adobe Illustrator 21.0.0, SVG Export Plug-In . SVG Version: 6.00 Build 0)  -->
<svg xmlns="http://www.w3.org/2000/svg" xmlns:xlink="http://www.w3.org/1999/xlink" version="1.1" id="Capa_1" x="0px" y="0px" viewBox="0 0 511.999 511.999" style="enable-background:new 0 0 511.999 511.999;" xml:space="preserve" width="512px" height="512px">
<g>
	<path d="M487.933,0h-33.134h-33.133H90.332H57.2H24.067c-4.142,0-7.5,3.358-7.5,7.5v265.067c0,4.142,3.358,7.5,7.5,7.5h463.866   c4.143,0,7.5-3.358,7.5-7.5V7.5C495.433,3.358,492.075,0,487.933,0z M447.299,15v22.866h-18.133V15H447.299z M82.832,15v22.866   H64.7V15H82.832z M64.7,265.063v-22.866h18.132v22.866H64.7z M429.166,265.063v-22.866h18.133v22.866H429.166z M480.433,265.067   h-18.134v-30.37c0-4.142-3.357-7.5-7.5-7.5h-33.133c-4.143,0-7.5,3.358-7.5,7.5v30.37H97.832v-30.37c0-4.142-3.358-7.5-7.5-7.5   H57.2c-4.142,0-7.5,3.358-7.5,7.5v30.37H31.567V15H49.7v30.366c0,4.142,3.358,7.5,7.5,7.5h33.132c4.142,0,7.5-3.358,7.5-7.5V15   h316.334v30.366c0,4.142,3.357,7.5,7.5,7.5h33.133c4.143,0,7.5-3.358,7.5-7.5V15h18.134V265.067z" fill="#2e3131"/>
	<path d="M181.451,347.899h-99.4c-4.142,0-7.5,3.358-7.5,7.5s3.358,7.5,7.5,7.5h99.4c4.142,0,7.5-3.358,7.5-7.5   S185.593,347.899,181.451,347.899z" fill="#2e3131"/>
	<path d="M429.95,347.899h-99.399c-4.143,0-7.5,3.358-7.5,7.5s3.357,7.5,7.5,7.5h99.399c4.143,0,7.5-3.358,7.5-7.5   S434.093,347.899,429.95,347.899z" fill="#2e3131"/>
	<path d="M90.332,75.731H57.2c-4.142,0-7.5,3.358-7.5,7.5v37.867c0,4.142,3.358,7.5,7.5,7.5h33.132c4.142,0,7.5-3.358,7.5-7.5   V83.231C97.832,79.089,94.474,75.731,90.332,75.731z M82.832,113.598H64.7V90.731h18.132V113.598z" fill="#2e3131"/>
	<path d="M90.332,151.463H57.2c-4.142,0-7.5,3.358-7.5,7.5v37.867c0,4.142,3.358,7.5,7.5,7.5h33.132c4.142,0,7.5-3.358,7.5-7.5   v-37.867C97.832,154.821,94.474,151.463,90.332,151.463z M82.832,189.33H64.7v-22.867h18.132V189.33z" fill="#2e3131"/>
	<path d="M454.799,75.731h-33.133c-4.143,0-7.5,3.358-7.5,7.5v37.867c0,4.142,3.357,7.5,7.5,7.5h33.133c4.143,0,7.5-3.358,7.5-7.5   V83.231C462.299,79.089,458.942,75.731,454.799,75.731z M447.299,113.598h-18.133V90.731h18.133V113.598z" fill="#2e3131"/>
	<path d="M454.799,151.463h-33.133c-4.143,0-7.5,3.358-7.5,7.5v37.867c0,4.142,3.357,7.5,7.5,7.5h33.133c4.143,0,7.5-3.358,7.5-7.5   v-37.867C462.299,154.821,458.942,151.463,454.799,151.463z M447.299,189.33h-18.133v-22.867h18.133V189.33z" fill="#2e3131"/>
	<path d="M256,66.266c-40.674,0-73.766,33.091-73.766,73.766c0,40.674,33.091,73.765,73.766,73.765   c40.675,0,73.766-33.091,73.766-73.765C329.766,99.357,296.675,66.266,256,66.266z M256,198.796   c-32.403,0-58.766-26.362-58.766-58.765c0-32.403,26.362-58.766,58.766-58.766s58.766,26.362,58.766,58.766   C314.766,172.435,288.404,198.796,256,198.796z" fill="#2e3131"/>
	<path d="M284.204,133.326l-49.7-24.85c-2.326-1.164-5.087-1.038-7.297,0.328c-2.211,1.367-3.557,3.781-3.557,6.38v49.699   c0,2.599,1.346,5.013,3.557,6.38c1.205,0.745,2.572,1.12,3.943,1.12c1.146,0,2.295-0.263,3.354-0.792l49.7-24.85   c2.54-1.27,4.146-3.867,4.146-6.708S286.744,134.596,284.204,133.326z M238.651,152.748v-25.429l25.429,12.714L238.651,152.748z" fill="#2e3131"/>
	<path d="M487.932,496.999h-9.067v-25.633c0-4.142-3.358-7.5-7.5-7.5h-9.064V445.73h25.63c4.143,0,7.5-3.358,7.5-7.5V405.1   c0-4.142-3.357-7.5-7.5-7.5h-25.63v-50.483c0-26.972-21.944-48.917-48.917-48.918l-66.267,0.001   c-26.973,0-48.917,21.944-48.918,48.916l0,50.484h-25.632c-4.143,0-7.5,3.358-7.5,7.5v33.13c0,4.142,3.357,7.5,7.5,7.5H298.2   l0,18.136h-84.399l0-18.136h25.63c4.142,0,7.5-3.358,7.5-7.5V405.1c0-4.142-3.358-7.5-7.5-7.5h-25.63l0-50.483   c0-26.972-21.944-48.917-48.916-48.918L98.616,298.2c-26.972,0-48.916,21.944-48.917,48.916l0,50.484H24.067   c-4.142,0-7.5,3.358-7.5,7.5v33.13c0,4.142,3.358,7.5,7.5,7.5h25.633l0,18.136h-9.065c-4.142,0-7.5,3.358-7.5,7.5v25.633h-9.066   c-4.142,0-7.5,3.358-7.5,7.5s3.358,7.5,7.5,7.5h59.547c4.142,0,7.5-3.358,7.5-7.5s-3.358-7.5-7.5-7.5H48.135v-18.133h415.73v18.133   H113.616c-4.142,0-7.5,3.358-7.5,7.5s3.358,7.5,7.5,7.5h374.316c4.143,0,7.5-3.358,7.5-7.5S492.074,496.999,487.932,496.999z    M298.198,430.73h-18.13V412.6h18.13V430.73z M49.697,430.73h-18.13V412.6h18.13V430.73z M480.431,412.6v18.13h-18.13V412.6   H480.431z M313.2,347.116c0-18.702,15.215-33.916,33.917-33.916l66.267,0c18.702,0,33.917,15.215,33.917,33.917v57.964   c0,0.007-0.001,0.013-0.001,0.019v33.13c0,0.007,0.001,0.013,0.001,0.019v25.616H313.2V347.116z M231.931,412.6v18.13h-18.13   l0-18.13H231.931z M64.699,347.116c0-18.702,15.215-33.916,33.916-33.916l66.268,0c18.702,0,33.917,15.215,33.917,33.917l0,57.979   c0,0.001,0,0.003,0,0.005v33.13c0,0.002,0,0.005,0,0.007l0,25.629H64.699V347.116z" fill="#2e3131"/>
</g>















</svg>
