<?xml version="1.0" encoding="iso-8859-1"?>
<!-- Generator: Adobe Illustrator 19.0.0, SVG Export Plug-In . SVG Version: 6.00 Build 0)  -->
<svg version="1.1" id="Layer_1" xmlns="http://www.w3.org/2000/svg" xmlns:xlink="http://www.w3.org/1999/xlink" x="0px" y="0px"
	 viewBox="0 0 512 512" style="enable-background:new 0 0 512 512;" xml:space="preserve">
<g>
	<g>
		<path d="M392.723,0H119.277c-5.632,0-10.199,4.567-10.199,10.199v491.602c0,5.632,4.567,10.199,10.199,10.199h273.447
			c5.632,0,10.199-4.567,10.198-10.199V10.199C402.922,4.567,398.355,0,392.723,0z M382.524,491.602H129.476V20.398h253.047V491.602
			z"/>
	</g>
</g>
<g>
	<g>
		<path d="M232.542,46.916h-67.315c-5.632,0-10.199,4.567-10.199,10.199v196.896c0,5.632,4.567,10.199,10.199,10.199h67.315
			c5.632,0,10.199-4.567,10.199-10.199V57.116C242.742,51.484,238.174,46.916,232.542,46.916z M222.343,243.812h-46.916V67.315
			h46.916V243.812z"/>
	</g>
</g>
<g>
	<g>
		<path d="M346.773,46.916h-67.315c-5.632,0-10.199,4.567-10.199,10.199v196.896c0,5.632,4.567,10.199,10.199,10.199h67.315
			c5.632,0,10.199-4.567,10.199-10.199V57.116C356.973,51.484,352.405,46.916,346.773,46.916z M336.574,243.812h-46.916V67.315
			h46.916V243.812z"/>
	</g>
</g>
<g>
	<g>
		<path d="M173.897,283.589c-14.341,0-26.008,11.667-26.008,26.008s11.667,26.008,26.008,26.008s26.008-11.667,26.008-26.008
			S188.238,283.589,173.897,283.589z M173.897,315.206c-3.092,0-5.61-2.517-5.61-5.61s2.517-5.61,5.61-5.61s5.61,2.517,5.61,5.61
			S176.989,315.206,173.897,315.206z"/>
	</g>
</g>
<g>
	<g>
		<path d="M346.773,370.282c-5.632,0-10.199,4.567-10.199,10.199v81.594c0,5.632,4.567,10.199,10.199,10.199
			c5.632,0,10.199-4.567,10.199-10.199v-81.594C356.973,374.849,352.405,370.282,346.773,370.282z"/>
	</g>
</g>
<g>
	<g>
		<path d="M346.773,333.565c-5.632,0-10.199,4.567-10.199,10.199v5.1c0,5.632,4.567,10.199,10.199,10.199
			c5.632,0,10.199-4.567,10.199-10.199v-5.1C356.973,338.132,352.405,333.565,346.773,333.565z"/>
	</g>
</g>
<g>
</g>
<g>
</g>
<g>
</g>
<g>
</g>
<g>
</g>
<g>
</g>
<g>
</g>
<g>
</g>
<g>
</g>
<g>
</g>
<g>
</g>
<g>
</g>
<g>
</g>
<g>
</g>
<g>
</g>
</svg>
