<?xml version="1.0" encoding="iso-8859-1"?>
<!-- Generator: Adobe Illustrator 19.0.0, SVG Export Plug-In . SVG Version: 6.00 Build 0)  -->
<svg version="1.1" id="Capa_1" xmlns="http://www.w3.org/2000/svg" xmlns:xlink="http://www.w3.org/1999/xlink" x="0px" y="0px"
	 viewBox="0 0 511.999 511.999" style="enable-background:new 0 0 511.999 511.999;" xml:space="preserve">
<g>
	<g>
		<path d="M215.752,285.999h-39.75v-20h25.953c5.522,0,10-4.477,10-10c0-5.523-4.478-10-10-10h-25.953V226h39.75
			c5.522,0,10-4.477,10-10s-4.478-10-10-10h-49.75c-5.522,0-10,4.477-10,10v79.999c0,5.523,4.477,10,10,10h49.75
			c5.522,0,10-4.477,10-10S221.274,285.999,215.752,285.999z"/>
	</g>
</g>
<g>
	<g>
		<path d="M294.262,256l22.324-34.575c2.995-4.64,1.663-10.83-2.977-13.825c-4.641-2.996-10.829-1.663-13.826,2.977l-17.426,26.988
			l-17.425-26.988c-2.996-4.639-9.184-5.975-13.826-2.977c-4.64,2.996-5.972,9.186-2.977,13.825L270.454,256l-22.324,34.575
			c-2.995,4.64-1.663,10.83,2.976,13.825c1.678,1.083,3.557,1.601,5.415,1.601c3.282,0,6.498-1.615,8.411-4.577l17.425-26.988
			l17.426,26.988c1.913,2.963,5.128,4.577,8.411,4.577c1.858,0,3.737-0.518,5.415-1.601c4.64-2.996,5.972-9.186,2.977-13.825
			L294.262,256z"/>
	</g>
</g>
<g>
	<g>
		<path d="M354.34,206c-5.522,0-10,4.477-10,10v79.999c0,5.523,4.477,10,10,10c5.522,0,10-4.477,10-10V216
			C364.34,210.477,359.862,206,354.34,206z"/>
	</g>
</g>
<g>
	<g>
		<path d="M446.001,206h-49.75c-5.522,0-10,4.477-10,10s4.477,10,10,10h14.875v69.999c0,5.523,4.478,10,10,10
			c5.522,0,10-4.477,10-10V226h14.875c5.522,0,10-4.477,10-10S451.523,206,446.001,206z"/>
	</g>
</g>
<g>
	<g>
		<path d="M501.999,146H92.006c-2.995,0-5.833,1.343-7.732,3.659L2.267,249.657c-3.023,3.687-3.023,8.996,0,12.682L84.274,362.34
			c1.899,2.316,4.737,3.659,7.732,3.659h409.993c5.523,0,10-4.477,10-10V156C511.999,150.477,507.521,146,501.999,146z M491.999,346
			H96.738l-73.807-90.001L96.737,166h395.262V346z"/>
	</g>
</g>
<g>
	<g>
		<path d="M72.066,260.723l-0.149-0.183c-3.496-4.273-9.798-4.905-14.071-1.407c-4.274,3.497-4.904,9.797-1.407,14.072l0.149,0.183
			c1.977,2.416,4.849,3.667,7.745,3.667c2.227,0,4.469-0.74,6.326-2.261C74.934,271.298,75.563,264.997,72.066,260.723z"/>
	</g>
</g>
<g>
	<g>
		<path d="M116.3,314.658l-26.021-31.73c-3.502-4.27-9.802-4.893-14.073-1.391s-4.894,9.803-1.392,14.073l26.021,31.73
			c1.978,2.411,4.846,3.659,7.738,3.659c2.23,0,4.476-0.743,6.335-2.268C119.179,325.229,119.802,318.928,116.3,314.658z"/>
	</g>
</g>
<g>
</g>
<g>
</g>
<g>
</g>
<g>
</g>
<g>
</g>
<g>
</g>
<g>
</g>
<g>
</g>
<g>
</g>
<g>
</g>
<g>
</g>
<g>
</g>
<g>
</g>
<g>
</g>
<g>
</g>
</svg>
