<?xml version="1.0" encoding="iso-8859-1"?>
<!-- Generator: Adobe Illustrator 21.0.0, SVG Export Plug-In . SVG Version: 6.00 Build 0)  -->
<svg xmlns="http://www.w3.org/2000/svg" xmlns:xlink="http://www.w3.org/1999/xlink" version="1.1" id="Capa_1" x="0px" y="0px" viewBox="0 0 512 512" style="enable-background:new 0 0 512 512;" xml:space="preserve" width="512px" height="512px">
<g>
	<path d="M123.466,248.499H90.332c-4.143,0-7.5,3.358-7.5,7.5v49.701c0,4.142,3.357,7.5,7.5,7.5h33.134c4.143,0,7.5-3.358,7.5-7.5   v-49.701C130.966,251.857,127.608,248.499,123.466,248.499z M115.966,298.201H97.832V263.5h18.134V298.201z" fill="#2e3131"/>
	<path d="M123.466,347.899H90.332c-4.143,0-7.5,3.358-7.5,7.5v49.701c0,4.142,3.357,7.5,7.5,7.5h33.134c4.143,0,7.5-3.358,7.5-7.5   v-49.701C130.966,351.257,127.608,347.899,123.466,347.899z M115.966,397.601H97.832v-34.701h18.134V397.601z" fill="#2e3131"/>
	<path d="M388.532,313.2h33.135c4.143,0,7.5-3.358,7.5-7.5v-49.701c0-4.142-3.357-7.5-7.5-7.5h-33.135c-4.143,0-7.5,3.358-7.5,7.5   V305.7C381.032,309.842,384.389,313.2,388.532,313.2z M396.032,263.499h18.135V298.2h-18.135V263.499z" fill="#2e3131"/>
	<path d="M421.667,347.899h-33.134c-4.143,0-7.5,3.358-7.5,7.5v49.701c0,4.142,3.357,7.5,7.5,7.5h33.134c4.143,0,7.5-3.358,7.5-7.5   v-49.701C429.167,351.257,425.809,347.899,421.667,347.899z M414.167,397.601h-18.134v-34.701h18.134V397.601z" fill="#2e3131"/>
	<path d="M256,313.199c31.54,0,57.199-25.66,57.199-57.2S287.54,198.8,256,198.8s-57.199,25.66-57.199,57.2   S224.46,313.199,256,313.199z M256,213.8c23.269,0,42.199,18.931,42.199,42.2s-18.931,42.2-42.199,42.2s-42.199-18.931-42.199-42.2   S232.731,213.8,256,213.8z" fill="#2e3131"/>
	<path d="M255.999,263.5h16.568c4.143,0,7.5-3.358,7.5-7.5c0-4.142-3.357-7.5-7.5-7.5h-9.068V231.15c0-4.142-3.357-7.5-7.5-7.5   c-4.143,0-7.5,3.358-7.5,7.5v24.849C248.499,260.142,251.856,263.5,255.999,263.5z" fill="#2e3131"/>
	<path d="M487.931,497h-9.067v-25.633c0-4.142-3.357-7.5-7.5-7.5h-9.064V230.367h9.065c3.033,0,5.769-1.827,6.929-4.63   c1.161-2.803,0.52-6.028-1.625-8.173l-82.834-82.834c-1.407-1.407-3.314-2.197-5.304-2.197h-91.101L263.5,103.448V81.266h75.333   c2.766,0,5.308-1.522,6.612-3.961c1.306-2.438,1.162-5.397-0.372-7.699l-13.792-20.69l13.792-20.689   c1.534-2.301,1.678-5.261,0.372-7.699c-1.305-2.438-3.847-3.961-6.612-3.961H263.5V7.5c0-4.142-3.357-7.5-7.5-7.5   s-7.5,3.358-7.5,7.5v16.566v49.699v29.681l-33.933,29.087h-91.101c-1.989,0-3.896,0.79-5.304,2.197l-82.833,82.834   c-2.145,2.145-2.786,5.371-1.625,8.173c1.16,2.803,3.896,4.63,6.929,4.63h9.065v233.499h-9.063c-4.143,0-7.5,3.358-7.5,7.5V497   h-9.066c-4.143,0-7.5,3.358-7.5,7.5c0,4.142,3.357,7.5,7.5,7.5h59.547c4.143,0,7.5-3.358,7.5-7.5c0-4.142-3.357-7.5-7.5-7.5h-35.48   v-18.133h9.025c0.013,0,0.026,0.002,0.039,0.002H156.6c0.013,0,0.026-0.002,0.039-0.002h198.722c0.013,0,0.025,0.002,0.039,0.002   h99.401c0.013,0,0.026-0.002,0.039-0.002h9.025V497H113.615c-4.143,0-7.5,3.358-7.5,7.5c0,4.142,3.357,7.5,7.5,7.5h374.316   c4.143,0,7.5-3.358,7.5-7.5C495.431,500.357,492.074,497,487.931,497z M447.301,463.866h-84.401V241.541l4.186,3.588   c1.386,1.188,3.125,1.806,4.882,1.806c1.063,0,2.131-0.225,3.133-0.686c2.661-1.224,4.366-3.885,4.366-6.814v-9.067h67.835V463.866   z M255.999,116.775l108.467,92.975v13.377L260.88,134.336c-1.404-1.204-3.143-1.806-4.881-1.806c-1.738,0-3.477,0.602-4.881,1.806   l-103.585,88.791v-13.377L255.999,116.775z M164.1,228.682l91.898-78.773l91.9,78.774v235.18h-26.417V362.9h0.784   c4.143,0,7.5-3.358,7.5-7.5s-3.357-7.5-7.5-7.5h-8.284H198.015h-8.282c-4.143,0-7.5,3.358-7.5,7.5s3.357,7.5,7.5,7.5h0.782v100.963   H164.1V228.682z M306.482,362.9v100.963H263.5V362.9H306.482z M248.5,463.863h-42.984V362.9H248.5V463.863z M385.426,147.533   l67.834,67.834h-73.794V206.3c0-2.189-0.957-4.27-2.619-5.694l-61.916-53.073H385.426z M324.819,31.566l-8.792,13.189   c-1.68,2.519-1.68,5.801,0,8.32l8.792,13.19H263.5V31.566H324.819z M126.572,147.533h70.495l-61.915,53.073   c-1.662,1.425-2.619,3.505-2.619,5.694v9.067H58.739L126.572,147.533z M64.698,230.367h67.835v9.067   c0,2.929,1.705,5.59,4.366,6.814c2.659,1.224,5.791,0.787,8.015-1.12l4.187-3.589v222.326H64.698V230.367z" fill="#2e3131"/>
</g>















</svg>
