<?xml version="1.0" encoding="iso-8859-1"?>
<!-- Generator: Adobe Illustrator 19.0.0, SVG Export Plug-In . SVG Version: 6.00 Build 0)  -->
<svg version="1.1" id="Layer_1" xmlns="http://www.w3.org/2000/svg" xmlns:xlink="http://www.w3.org/1999/xlink" x="0px" y="0px"
	 viewBox="0 0 512 512" style="enable-background:new 0 0 512 512;" xml:space="preserve">
<g>
	<g>
		<path d="M124.468,387.99c-3.982-3.983-10.441-3.983-14.425,0l-5.118,5.118c-3.983,3.983-3.983,10.442,0,14.426
			c1.992,1.991,4.602,2.988,7.213,2.988c2.61,0,5.221-0.997,7.212-2.988l5.118-5.118
			C128.451,398.433,128.451,391.974,124.468,387.99z"/>
	</g>
</g>
<g>
	<g>
		<path d="M509.013,100.997L411.002,2.987c-3.984-3.982-10.441-3.982-14.426,0c-19.709,19.71-21.314,50.755-4.846,72.329
			L161.574,305.474l-38.58-38.58c-3.982-3.982-10.442-3.982-14.425,0l-80.337,80.337c-37.642,37.643-37.642,98.893,0,136.536
			C47.053,502.588,71.777,512,96.5,512c24.723,0,49.447-9.412,68.268-28.233l80.337-80.337c1.913-1.914,2.988-4.507,2.988-7.213
			s-1.075-5.299-2.988-7.212l-38.579-38.579l230.151-230.151c9.548,7.31,21.161,11.28,33.389,11.28
			c14.712,0,28.543-5.728,38.946-16.131C512.996,111.44,512.996,104.981,509.013,100.997z M223.468,396.219l-73.123,73.122
			c-29.688,29.689-77.997,29.689-107.687,0c-29.689-29.688-29.689-77.997,0-107.685l73.123-73.123l46.631,46.63l-32.152,32.152
			c-3.983,3.983-3.983,10.442,0,14.426c1.992,1.991,4.602,2.988,7.212,2.988c2.61,0,5.221-0.997,7.213-2.988l32.152-32.152
			L223.468,396.219z M192.102,336.001l-16.103-16.103L405.797,90.101l16.102,16.102L192.102,336.001z M470.067,111.155
			c-9.263,0-17.971-3.607-24.52-10.157l-34.545-34.545c-11.012-11.012-13.056-27.646-6.131-40.745l81.432,81.431
			C481.36,109.763,475.821,111.155,470.067,111.155z"/>
	</g>
</g>
<g>
</g>
<g>
</g>
<g>
</g>
<g>
</g>
<g>
</g>
<g>
</g>
<g>
</g>
<g>
</g>
<g>
</g>
<g>
</g>
<g>
</g>
<g>
</g>
<g>
</g>
<g>
</g>
<g>
</g>
</svg>
